<svg viewBox="0 0 800 240" fill="none" xmlns="http://www.w3.org/2000/svg" preserveAspectRatio="xMidYMid meet">
  <style>
    .pixel {
      font-family: 'Courier New', Courier, monospace;
    }

    .bold {
      font-weight: bold;
    }
  </style>

  <rect width="800" height="240" rx="15" fill="#121212" />

  <path
    d="M0 40H800M0 80H800M0 120H800M0 160H800M0 200H800M40 0V240M80 0V240M120 0V240M160 0V240M200 0V240M240 0V240M280 0V240M320 0V240M360 0V240M400 0V240M440 0V240M480 0V240M520 0V240M560 0V240M600 0V240M640 0V240M680 0V240M720 0V240M760 0V240"
    stroke="#1F1F1F" stroke-width="1" />

  <path d="M50 180H120V120H200" stroke="#4CAF50" stroke-width="2" stroke-opacity="0.5" />
  <circle cx="50" cy="180" r="3" fill="#4CAF50" fill-opacity="0.5" />

  <rect x="180" y="40" width="440" height="140" rx="8" fill="#1E1E1E" stroke="#FFD700" stroke-width="2" />

  <g fill="#333">
    <rect x="220" y="30" width="12" height="10" />
    <rect x="260" y="30" width="12" height="10" />
    <rect x="300" y="30" width="12" height="10" />
    <rect x="340" y="30" width="12" height="10" />
    <rect x="540" y="30" width="12" height="10" />
  </g>

  <text x="400" y="90" text-anchor="middle" class="pixel bold" font-size="32" fill="#FFD700">ROGÉRIO CAETANO</text>
  <text x="400" y="125" text-anchor="middle" class="pixel" font-size="16" fill="#E0E0E0">DESIGN SPECIALIST | CREATIVE
    ENGINEER</text>

  <text x="400" y="155" text-anchor="middle" class="pixel" font-size="13" fill="#888">
    [ EMBEDDED SYSTEMS • IoT • RETROCOMPUTING ]
  </text>

  <rect x="340" y="195" width="120" height="24" rx="12" fill="#4CAF50" fill-opacity="0.1" stroke="#4CAF50"
    stroke-width="1" />
  <circle cx="355" cy="207" r="4" fill="#4CAF50">
    <animate attributeName="opacity" values="1;0.2;1" dur="2s" repeatCount="indefinite" />
  </circle>
  <text x="365" y="211" class="pixel bold" font-size="11" fill="#4CAF50">SYSTEM ACTIVE</text>

</svg>