<svg width="800" height="200" fill="none" xmlns="http://www.w3.org/2000/svg"><rect width="800" height="200" rx="10" fill="#1A1A1A"/><path d="M0 40h800M0 80h800M0 120h800M0 160h800M40 0v200M80 0v200M120 0v200M160 0v200M200 0v200M240 0v200M280 0v200M320 0v200M360 0v200M400 0v200M440 0v200M480 0v200M520 0v200M560 0v200M600 0v200M640 0v200M680 0v200M720 0v200M760 0v200" stroke="#2D2D2D"/><path d="M50 100h100m0 0v50m0-50l30-30" stroke="#4CAF50" stroke-width="2" stroke-linecap="round"/><circle cx="50" cy="100" r="4" fill="#4CAF50"/><circle cx="180" cy="70" r="4" fill="#4CAF50"/><rect x="230" y="45" width="340" height="110" rx="4" fill="#333" stroke="gold" stroke-width="2"/><path fill="#555" d="M240 35h10v10h-10zM260 35h10v10h-10zM280 35h10v10h-10zM300 35h10v10h-10zM530 35h10v10h-10z"/><text x="260" y="85" font-family="monospace" font-size="28" font-weight="bold" fill="gold">ROGÉRIO CAETANO</text><text x="260" y="115" font-family="monospace" font-size="14" fill="#FFF">DESIGNER + SOFTWARE ENGINEER</text><text x="260" y="135" font-family="monospace" font-size="12" fill="#AAA">8-BIT ENTHUSIAST | IoT | C++ | PHP</text><rect x="620" y="70" width="120" height="30" rx="15" fill="#4CAF50" fill-opacity=".2" stroke="#4CAF50"/><text x="640" y="90" font-family="monospace" font-size="12" fill="#4CAF50" font-weight="bold">ONLINE_MODE</text><path fill="gold" d="M525 123h8v15h-8z"><animate attributeName="opacity" values="0;1;0" dur="1s" repeatCount="indefinite"/></path></svg>